<svg xmlns="http://www.w3.org/2000/svg" xmlns:xlink="http://www.w3.org/1999/xlink" xmlns:inkscape="http://www.inkscape.org/namespaces/inkscape" width="340.1575" height="70.8661" viewBox="0 0 340.1575 70.8661"><g inkscape:groupmode="layer" inkscape:label="Camada 1"><path transform="matrix(1,0,0,-1,0,70.8661)" d="M96.8754 25.3049H114.4349C128.5855 25.3049 138.3622 35.1462 138.3622 47.8171V47.9458C138.3622 60.6169 128.5855 70.3293 114.4349 70.3293H96.8754ZM106.7808 34.2456V61.3888H114.4349C122.5395 61.3888 128.0064 55.7929 128.0064 47.8171V47.6884C128.0064 39.7125 122.5395 34.2456 114.4349 34.2456ZM147.174 25.3049H181.457V34.1169H157.0153V43.5719H178.2411V52.384H157.0153V61.5175H181.1353V70.3293H147.174ZM190.2688 25.3049H222.622V34.3097H200.1739V70.3293H190.2688ZM226.2237 25.3049H236.3219L240.4383 35.4033H259.4772L263.594 25.3049H273.9495L254.6535 70.6507H245.5197ZM243.976 44.1507 249.9579 58.7517 255.9399 44.1507ZM287.0062 24.9834H295.6252L305.788 54.4422 315.9505 24.9834H324.5695L339.9418 70.3293H329.5862L320.26 39.8412 310.1615 70.458H301.6712L291.5731 39.8412 282.2468 70.3293H271.6339Z" fill="#ffffff"></path><path transform="matrix(1,0,0,-1,0,70.8661)" d="M-.2151 39.3052H21.5895V31.1284H-.2151ZM14.7756 7.9614 35.2176 7.9611C50.2705 7.9611 62.4736 20.1643 62.4736 35.2174 62.4736 50.2702 50.2705 62.4733 35.2176 62.4733L14.7756 62.4728V48.8449H6.5988V70.6496C8.7534 70.6496 35.2176 70.649 35.2176 70.6501 54.7866 70.6501 70.6504 54.7863 70.6504 35.2174 70.6504 15.6484 54.7866-.2157 35.2176-.2157 35.2176-.2151 8.7531-.2154 6.5988-.2154V21.5895H14.7756ZM35.2176 57.0217C47.2598 57.0217 57.0223 47.2589 57.0223 35.2168 57.0223 23.1744 47.2598 13.4118 35.2176 13.4118L20.2269 13.4127V21.5895L35.2176 21.5887C42.7442 21.5887 48.8455 27.6902 48.8455 35.2168 48.8455 42.7433 42.7442 48.8449 35.2176 48.8449H20.2269V57.0217Z" fill="#00ac9b" fill-rule="evenodd"></path><path transform="matrix(1,0,0,-1,0,70.8661)" d="M104.2313-.1732C102.8041-.1732 101.5359 .1553 100.4264 .8124 99.3172 1.4695 98.4481 2.3737 97.8194 3.5254 97.1904 4.6772 96.876 6.0018 96.876 7.4999 96.876 8.9977 97.1904 10.3224 97.8194 11.4741 98.4481 12.6258 99.3138 13.53 100.4159 14.1871 101.518 14.8442 102.7828 15.173 104.2101 15.173 105.171 15.173 106.0753 14.9998 106.9231 14.6537 107.771 14.3073 108.5236 13.8305 109.1806 13.2228 109.8377 12.6153 110.3428 11.9086 110.696 11.1033L108.4493 10.1917C108.195 10.7286 107.8523 11.2056 107.4212 11.6226 106.9903 12.0393 106.4993 12.3608 105.948 12.587 105.3969 12.8129 104.8175 12.926 104.2101 12.926 103.2775 12.926 102.4472 12.693 101.7196 12.2267 100.9916 11.7604 100.4193 11.1209 100.0026 10.3082 99.5856 9.4958 99.3773 8.5595 99.3773 7.4999 99.3773 6.44 99.5856 5.5003 100.0026 4.6806 100.4193 3.8611 100.9987 3.2182 101.7405 2.7519 102.4826 2.2856 103.3268 2.0523 104.2736 2.0523 104.8955 2.0523 105.4783 2.1759 106.0223 2.4233 106.5662 2.6705 107.0538 3.0132 107.4849 3.4512 107.9158 3.8894 108.2585 4.398 108.5128 4.9774L110.7598 4.066C110.4063 3.2323 109.9049 2.4939 109.2546 1.851 108.6046 1.2081 107.8486 .7098 106.9866 .3566 106.1249 .0034 105.2062-.1732 104.2313-.1732ZM125.0138 .0811 119.2272 14.9185H121.686L127.6209 .0811ZM113.1653 .0811 119.0789 14.9185H121.5587L115.7723 .0811ZM115.9421 3.7267V5.91H124.8231V3.7267ZM118.7399 15.8723 121.1771 18.5854H123.9327L121.1984 15.8723ZM131.1497 .0811V14.9185H133.6085V2.3278H140.3277V.0811ZM150.4063-.1732C148.9791-.1732 147.7108 .1553 146.6014 .8124 145.4922 1.4695 144.6231 2.3737 143.9946 3.5254 143.3656 4.6772 143.0512 6.0018 143.0512 7.4999 143.0512 8.9977 143.3656 10.3224 143.9946 11.4741 144.6231 12.6258 145.4888 13.53 146.5909 14.1871 147.693 14.8442 148.9578 15.173 150.385 15.173 151.346 15.173 152.2502 14.9998 153.0981 14.6537 153.9459 14.3073 154.6985 13.8305 155.3556 13.2228 156.0127 12.6153 156.5178 11.9086 156.871 11.1033L154.6243 10.1917C154.37 10.7286 154.0273 11.2056 153.5961 11.6226 153.1653 12.0393 152.6743 12.3608 152.123 12.587 151.5719 12.8129 150.9925 12.926 150.385 12.926 149.4524 12.926 148.6222 12.693 147.8945 12.2267 147.1666 11.7604 146.5943 11.1209 146.1776 10.3082 145.7606 9.4958 145.5523 8.5595 145.5523 7.4999 145.5523 6.44 145.7606 5.5003 146.1776 4.6806 146.5943 3.8611 147.1737 3.2182 147.9155 2.7519 148.6576 2.2856 149.5018 2.0523 150.4485 2.0523 151.0705 2.0523 151.6533 2.1759 152.1972 2.4233 152.7412 2.6705 153.2288 3.0132 153.6599 3.4512 154.0908 3.8894 154.4335 4.398 154.6877 4.9774L156.9348 4.066C156.5813 3.2323 156.0798 2.4939 155.4296 1.851 154.7796 1.2081 154.0236 .7098 153.1616 .3566 152.2998 .0034 151.3811-.1732 150.4063-.1732ZM166.5683-.2157C165.3953-.2157 164.3672 .021 163.4842 .4944 162.6009 .9677 161.9155 1.6356 161.428 2.4973 160.9407 3.3593 160.6969 4.3628 160.6969 5.5074V14.9185H163.1557V5.5074C163.1557 4.8149 163.3005 4.2109 163.5902 3.695 163.8799 3.1793 164.2861 2.7765 164.8089 2.4868 165.3318 2.1971 165.9322 2.0523 166.6106 2.0523 167.3031 2.0523 167.9142 2.1971 168.444 2.4868 168.9741 2.7765 169.3803 3.1793 169.6629 3.695 169.9452 4.2109 170.0864 4.8149 170.0864 5.5074V14.9185H172.5452V5.5074C172.5452 4.3628 172.3017 3.3593 171.8141 2.4973 171.3266 1.6356 170.634 .9677 169.7369 .4944 168.8397 .021 167.7835-.2157 166.5683-.2157ZM177.4519 .0811V14.9185H179.9107V2.3278H186.63V.0811ZM196.539-.1732C195.0693-.1732 193.7696 .1517 192.6391 .8016 191.5087 1.4519 190.622 2.3562 189.9791 3.515 189.3359 4.6735 189.0145 6.0018 189.0145 7.4999 189.0145 8.9977 189.3359 10.3224 189.9791 11.4741 190.622 12.6258 191.5016 13.53 192.6179 14.1871 193.7341 14.8442 195.0199 15.173 196.4752 15.173 197.945 15.173 199.2416 14.8442 200.3649 14.1871 201.4883 13.53 202.3645 12.6258 202.9932 11.4741 203.622 10.3224 203.9366 8.9977 203.9366 7.4999 203.9366 6.0018 203.622 4.6735 202.9932 3.515 202.3645 2.3562 201.4954 1.4519 200.3862 .8016 199.2767 .1517 197.9943-.1732 196.539-.1732ZM196.539 2.0735C197.5 2.0735 198.3478 2.3066 199.0826 2.7731 199.8173 3.2394 200.3933 3.8786 200.81 4.6913 201.227 5.5037 201.4353 6.44 201.4353 7.4999 201.4353 8.5456 201.2233 9.4782 200.7995 10.2977 200.3754 11.1172 199.7926 11.7567 199.0508 12.2159 198.309 12.6751 197.4504 12.9047 196.4752 12.9047 195.5146 12.9047 194.6633 12.6751 193.9215 12.2159 193.1797 11.7567 192.5932 11.1209 192.1623 10.3082 191.7312 9.4958 191.5157 8.5595 191.5157 7.4999 191.5157 6.44 191.7312 5.5037 192.1623 4.6913 192.5932 3.8786 193.1868 3.2394 193.9428 2.7731 194.6988 2.3066 195.5639 2.0735 196.539 2.0735ZM213.0191-.1732C212.2418-.1732 211.5317-.0814 210.8889 .1023 210.246 .286 209.6807 .5403 209.1932 .8654 208.7056 1.1903 208.3028 1.5542 207.985 1.957 207.667 2.3596 207.4445 2.7799 207.3172 3.2182L209.7337 3.96C209.9174 3.4373 210.2777 2.9778 210.8146 2.5824 211.3517 2.1866 212.0156 1.9817 212.8071 1.9675 213.7255 1.9675 214.4534 2.1583 214.9903 2.5398 215.5272 2.9214 215.7959 3.4231 215.7959 4.0448 215.7959 4.61 215.5697 5.0729 215.1176 5.4332 214.6652 5.7934 214.0577 6.0727 213.2946 6.2705L211.4717 6.7368C210.7794 6.9205 210.1541 7.1889 209.596 7.5421 209.0375 7.8953 208.5996 8.3407 208.2815 8.8775 207.9638 9.4144 207.8048 10.0505 207.8048 10.7853 207.8048 12.17 208.2569 13.2474 209.1614 14.0176 210.0657 14.7878 211.3586 15.173 213.0403 15.173 213.9871 15.173 214.8171 15.0282 215.5309 14.7385 216.2443 14.4488 216.8345 14.053 217.3008 13.5513 217.7671 13.0496 218.1132 12.4809 218.3394 11.8451L215.9654 11.082C215.7534 11.6473 215.386 12.1136 214.863 12.4809 214.3403 12.8483 213.6903 13.032 212.9131 13.032 212.1077 13.032 211.4753 12.8412 211.0161 12.4597 210.5566 12.0781 210.327 11.5483 210.327 10.87 210.327 10.319 210.5073 9.8915 210.8676 9.5876 211.2279 9.2837 211.7191 9.0541 212.3408 8.8988L214.1637 8.4538C215.492 8.1286 216.5236 7.5705 217.2583 6.7791 217.993 5.9879 218.3604 5.1117 218.3604 4.1508 218.3604 3.3029 218.1557 2.554 217.7459 1.904 217.336 1.254 216.7319 .7452 215.9337 .3779 215.1351 .0105 214.1637-.1732 213.0191-.1732ZM230.6432-.1945C229.9932-.1945 229.4175-.0955 228.9158 .1023 228.414 .3002 227.9795 .5615 227.6121 .8864 227.2448 1.2115 226.9446 1.5647 226.7113 1.9463 226.4783 2.3278 226.3051 2.7023 226.192 3.0696L228.2057 3.9387C228.46 3.3593 228.7885 2.9001 229.1913 2.5611 229.5941 2.2218 230.0851 2.0523 230.6645 2.0523 231.1308 2.0523 231.5724 2.162 231.9891 2.3808 232.4061 2.5999 232.7488 2.9497 233.0172 3.4302 233.2857 3.9107 233.42 4.5465 233.42 5.3376V14.9185H235.8788V4.5536C235.8788 3.7905 235.741 3.1156 235.4655 2.5294 235.19 1.9429 234.8118 1.4448 234.3314 1.0349 233.8509 .625 233.2928 .3178 232.6569 .1128 232.0211-.0921 231.3499-.1945 230.6432-.1945ZM246.4237-.2157C245.251-.2157 244.2229 .021 243.3399 .4944 242.4566 .9677 241.7712 1.6356 241.2836 2.4973 240.7963 3.3593 240.5526 4.3628 240.5526 5.5074V14.9185H243.0113V5.5074C243.0113 4.8149 243.1562 4.2109 243.4459 3.695 243.7356 3.1793 244.1418 2.7765 244.6645 2.4868 245.1875 2.1971 245.7876 2.0523 246.4659 2.0523 247.1584 2.0523 247.7696 2.1971 248.2994 2.4868 248.8294 2.7765 249.2357 3.1793 249.5183 3.695 249.8009 4.2109 249.942 4.8149 249.942 5.5074V14.9185H252.4008V5.5074C252.4008 4.3628 252.1573 3.3593 251.6698 2.4973 251.1822 1.6356 250.4897 .9677 249.5925 .4944 248.6951 .021 247.6389-.2157 246.4237-.2157ZM257.3076 .0811V14.9185H261.9709C263.4265 14.9185 264.7159 14.6041 265.8393 13.9754 266.9627 13.3464 267.846 12.4739 268.4889 11.3576 269.1317 10.2413 269.4532 8.9552 269.4532 7.4999 269.4532 6.0585 269.1317 4.7795 268.4889 3.6632 267.846 2.5469 266.9627 1.6707 265.8393 1.0349 264.7159 .3991 263.4265 .0811 261.9709 .0811ZM259.7664 2.3703H261.9709C262.6634 2.3703 263.3134 2.501 263.9211 2.7624 264.5286 3.0237 265.0584 3.3877 265.5108 3.854 265.9629 4.3203 266.3161 4.8643 266.5706 5.4862 266.8249 6.1078 266.9519 6.7791 266.9519 7.4999 266.9519 8.2205 266.8249 8.8917 266.5706 9.5134 266.3161 10.1353 265.9629 10.6792 265.5108 11.1455 265.0584 11.6118 264.5286 11.9758 263.9211 12.2372 263.3134 12.4985 262.6634 12.6292 261.9709 12.6292H259.7664ZM273.6388 .0811V14.9185H276.0976V.0811ZM287.6391-.1732C286.2119-.1732 284.9437 .1553 283.8342 .8124 282.725 1.4695 281.8559 2.3737 281.2272 3.5254 280.5982 4.6772 280.2838 6.0018 280.2838 7.4999 280.2838 8.9977 280.5982 10.3224 281.2272 11.4741 281.8559 12.6258 282.7216 13.53 283.8237 14.1871 284.9258 14.8442 286.1906 15.173 287.6179 15.173 288.5788 15.173 289.4831 14.9998 290.3309 14.6537 291.1788 14.3073 291.9314 13.8305 292.5884 13.2228 293.2455 12.6153 293.7506 11.9086 294.1038 11.1033L291.8571 10.1917C291.6028 10.7286 291.2601 11.2056 290.829 11.6226 290.3981 12.0393 289.9071 12.3608 289.3558 12.587 288.8048 12.8129 288.2254 12.926 287.6179 12.926 286.6853 12.926 285.855 12.693 285.1274 12.2267 284.3994 11.7604 283.8271 11.1209 283.4104 10.3082 282.9934 9.4958 282.7851 8.5595 282.7851 7.4999 282.7851 6.44 282.9934 5.5003 283.4104 4.6806 283.8271 3.8611 284.4065 3.2182 285.1483 2.7519 285.8905 2.2856 286.7346 2.0523 287.6814 2.0523 288.3033 2.0523 288.8861 2.1759 289.4301 2.4233 289.974 2.6705 290.4616 3.0132 290.8928 3.4512 291.3236 3.8894 291.6663 4.398 291.9206 4.9774L294.1676 4.066C293.8141 3.2323 293.3127 2.4939 292.6624 1.851 292.0124 1.2081 291.2564 .7098 290.3944 .3566 289.5327 .0034 288.614-.1732 287.6391-.1732ZM298.1412 .0811V14.9185H300.6V.0811ZM315.9992 .0811 310.2126 14.9185H312.6713L318.6062 .0811ZM304.1504 .0811 310.064 14.9185H312.5441L306.7574 .0811ZM306.9272 3.7267V5.91H315.8084V3.7267ZM322.1348 .0811V14.9185H324.5936V.0811ZM334.5877-.1732C333.8104-.1732 333.1003-.0814 332.4574 .1023 331.8146 .286 331.2493 .5403 330.7618 .8654 330.2742 1.1903 329.8714 1.5542 329.5536 1.957 329.2356 2.3596 329.0131 2.7799 328.8858 3.2182L331.3023 3.96C331.486 3.4373 331.8463 2.9778 332.3832 2.5824 332.9203 2.1866 333.5842 1.9817 334.3757 1.9675 335.2941 1.9675 336.022 2.1583 336.5589 2.5398 337.0958 2.9214 337.3645 3.4231 337.3645 4.0448 337.3645 4.61 337.1383 5.0729 336.6862 5.4332 336.2338 5.7934 335.6263 6.0727 334.8632 6.2705L333.0403 6.7368C332.348 6.9205 331.7227 7.1889 331.1646 7.5421 330.6061 7.8953 330.1682 8.3407 329.8501 8.8775 329.5324 9.4144 329.3734 10.0505 329.3734 10.7853 329.3734 12.17 329.8255 13.2474 330.73 14.0176 331.6343 14.7878 332.9271 15.173 334.6089 15.173 335.5557 15.173 336.3857 15.0282 337.0995 14.7385 337.8129 14.4488 338.4031 14.053 338.8694 13.5513 339.3357 13.0496 339.6818 12.4809 339.908 11.8451L337.534 11.082C337.322 11.6473 336.9546 12.1136 336.4316 12.4809 335.9089 12.8483 335.2589 13.032 334.4817 13.032 333.6763 13.032 333.0439 12.8412 332.5847 12.4597 332.1252 12.0781 331.8956 11.5483 331.8956 10.87 331.8956 10.319 332.0759 9.8915 332.4362 9.5876 332.7965 9.2837 333.2877 9.0541 333.9094 8.8988L335.7323 8.4538C337.0606 8.1286 338.0922 7.5705 338.8269 6.7791 339.5616 5.9879 339.929 5.1117 339.929 4.1508 339.929 3.3029 339.7243 2.554 339.3145 1.904 338.9046 1.254 338.3005 .7452 337.5023 .3779 336.7037 .0105 335.7323-.1732 334.5877-.1732" fill="#00ac9b"></path></g></svg>